<svg width="186" height="65" viewBox="0 0 186 65" fill="none" xmlns="http://www.w3.org/2000/svg">
<rect width="186" height="65" rx="18" fill="#181B1D"/>
<path d="M72.54 26H73.692L70.68 17.684H69.42L66.396 26H67.548L68.22 24.14H71.868L72.54 26ZM71.556 23.252H68.532L70.044 19.028L71.556 23.252ZM74.2299 19.424L76.8099 26H78.0819L80.6619 19.424H79.4979L77.4579 24.992L75.4059 19.424H74.2299ZM81.3285 22.688C81.3285 24.728 82.6845 26.108 84.4365 26.108C85.6485 26.108 86.5005 25.484 86.8965 24.776V26H88.0005V19.424H86.8965V20.624C86.5125 19.94 85.6725 19.316 84.4485 19.316C82.6845 19.316 81.3285 20.636 81.3285 22.688ZM86.8965 22.7C86.8965 24.248 85.8645 25.148 84.6645 25.148C83.4645 25.148 82.4445 24.236 82.4445 22.688C82.4445 21.14 83.4645 20.264 84.6645 20.264C85.8645 20.264 86.8965 21.176 86.8965 22.7ZM89.8459 26H90.9379V19.424H89.8459V26ZM90.4099 18.356C90.8059 18.356 91.1299 18.032 91.1299 17.612C91.1299 17.192 90.8059 16.868 90.4099 16.868C89.9899 16.868 89.6659 17.192 89.6659 17.612C89.6659 18.032 89.9899 18.356 90.4099 18.356ZM92.799 26H93.891V17.12H92.799V26ZM95.3441 22.688C95.3441 24.728 96.7001 26.108 98.4521 26.108C99.6641 26.108 100.516 25.484 100.912 24.776V26H102.016V19.424H100.912V20.624C100.528 19.94 99.6881 19.316 98.4641 19.316C96.7001 19.316 95.3441 20.636 95.3441 22.688ZM100.912 22.7C100.912 24.248 99.8801 25.148 98.6801 25.148C97.4801 25.148 96.4601 24.236 96.4601 22.688C96.4601 21.14 97.4801 20.264 98.6801 20.264C99.8801 20.264 100.912 21.176 100.912 22.7ZM104.954 20.648V17.12H103.862V26H104.954V24.788C105.362 25.508 106.214 26.108 107.414 26.108C109.178 26.108 110.534 24.728 110.534 22.688C110.534 20.636 109.19 19.316 107.414 19.316C106.25 19.316 105.374 19.916 104.954 20.648ZM109.418 22.688C109.418 24.236 108.398 25.148 107.186 25.148C105.998 25.148 104.954 24.248 104.954 22.7C104.954 21.176 105.998 20.264 107.186 20.264C108.398 20.264 109.418 21.14 109.418 22.688ZM111.971 26H113.063V17.12H111.971V26ZM117.72 20.24C118.848 20.24 119.808 20.948 119.796 22.232H115.644C115.764 20.948 116.652 20.24 117.72 20.24ZM120.792 23.972H119.616C119.376 24.68 118.752 25.184 117.768 25.184C116.652 25.184 115.716 24.452 115.632 23.12H120.888C120.912 22.892 120.924 22.7 120.924 22.46C120.924 20.66 119.676 19.316 117.768 19.316C115.848 19.316 114.516 20.624 114.516 22.7C114.516 24.788 115.896 26.108 117.768 26.108C119.4 26.108 120.456 25.172 120.792 23.972ZM131.805 22.7C131.805 20.624 130.353 19.316 128.481 19.316C126.621 19.316 125.157 20.624 125.157 22.7C125.157 24.788 126.573 26.108 128.433 26.108C130.305 26.108 131.805 24.788 131.805 22.7ZM126.273 22.7C126.273 21.044 127.317 20.264 128.469 20.264C129.597 20.264 130.689 21.044 130.689 22.7C130.689 24.368 129.573 25.148 128.433 25.148C127.293 25.148 126.273 24.368 126.273 22.7ZM138.052 26H139.132V22.124C139.132 20.24 137.968 19.304 136.444 19.304C135.556 19.304 134.764 19.676 134.332 20.36V19.424H133.24V26H134.332V22.364C134.332 20.948 135.1 20.252 136.216 20.252C137.32 20.252 138.052 20.936 138.052 22.28V26Z" fill="white" fill-opacity="0.9"/>
<path d="M75.738 48H78.996L74.424 35.364H70.86L66.288 48H69.51L70.266 45.768H74.982L75.738 48ZM74.19 43.392H71.076L72.624 38.766L74.19 43.392ZM83.4655 39.378V37.956H80.3875V52.788H83.4655V46.596C84.0235 47.442 85.0855 48.144 86.5615 48.144C89.0275 48.144 90.9895 46.128 90.9895 42.96C90.9895 39.792 89.0275 37.812 86.5615 37.812C85.0855 37.812 84.0235 38.496 83.4655 39.378ZM87.8575 42.96C87.8575 44.562 86.8135 45.462 85.6435 45.462C84.4915 45.462 83.4475 44.58 83.4475 42.978C83.4475 41.376 84.4915 40.494 85.6435 40.494C86.8135 40.494 87.8575 41.358 87.8575 42.96ZM95.6823 39.378V37.956H92.6043V52.788H95.6823V46.596C96.2403 47.442 97.3023 48.144 98.7783 48.144C101.244 48.144 103.206 46.128 103.206 42.96C103.206 39.792 101.244 37.812 98.7783 37.812C97.3023 37.812 96.2403 38.496 95.6823 39.378ZM100.074 42.96C100.074 44.562 99.0303 45.462 97.8603 45.462C96.7083 45.462 95.6643 44.58 95.6643 42.978C95.6643 41.376 96.7083 40.494 97.8603 40.494C99.0303 40.494 100.074 41.358 100.074 42.96ZM117.816 44.238C117.816 40.008 111.57 40.998 111.57 38.802C111.57 38.01 112.128 37.632 112.866 37.65C113.694 37.668 114.27 38.154 114.324 38.964H117.654C117.528 36.552 115.674 35.184 112.92 35.184C110.274 35.184 108.312 36.516 108.312 38.91C108.276 43.392 114.594 42.132 114.594 44.472C114.594 45.21 114.018 45.66 113.118 45.66C112.254 45.66 111.642 45.192 111.552 44.22H108.276C108.366 46.776 110.49 48.126 113.208 48.126C116.16 48.126 117.816 46.362 117.816 44.238ZM120.196 44.508C120.196 47.118 121.654 48 123.742 48H125.308V45.39H124.21C123.526 45.39 123.274 45.138 123.274 44.544V40.512H125.29V37.956H123.274V35.508H120.196V37.956H118.972V40.512H120.196V44.508ZM136.85 42.978C136.85 39.792 134.582 37.812 131.63 37.812C128.696 37.812 126.41 39.792 126.41 42.978C126.41 46.164 128.642 48.144 131.594 48.144C134.546 48.144 136.85 46.164 136.85 42.978ZM129.542 42.978C129.542 41.268 130.514 40.476 131.63 40.476C132.71 40.476 133.718 41.268 133.718 42.978C133.718 44.67 132.692 45.48 131.594 45.48C130.478 45.48 129.542 44.67 129.542 42.978ZM141.561 43.338C141.561 41.61 142.407 41.106 143.865 41.106H144.711V37.848C143.361 37.848 142.263 38.568 141.561 39.63V37.956H138.483V48H141.561V43.338ZM150.61 40.278C151.636 40.278 152.5 40.908 152.5 42.006H148.648C148.828 40.89 149.602 40.278 150.61 40.278ZM155.416 44.67H152.14C151.888 45.21 151.402 45.642 150.538 45.642C149.548 45.642 148.738 45.03 148.63 43.716H155.596C155.632 43.41 155.65 43.104 155.65 42.816C155.65 39.756 153.58 37.812 150.646 37.812C147.658 37.812 145.57 39.792 145.57 42.978C145.57 46.164 147.694 48.144 150.646 48.144C153.148 48.144 154.93 46.632 155.416 44.67Z" fill="white"/>
<path d="M40.9588 20.1197C41.9768 18.938 43.6981 18.0588 45.1188 18C45.3002 19.6437 44.6339 21.2873 43.647 22.4717C42.6602 23.6534 41.0439 24.5746 39.4587 24.4542C39.246 22.847 40.0428 21.1725 40.9588 20.1197ZM49.0405 42.5232C47.8609 44.2285 46.6415 45.9253 44.7189 45.9617C42.8247 45.9981 42.2178 44.8501 40.057 44.8501C37.8934 44.8501 37.2157 45.9253 35.4292 45.9981C33.5718 46.0681 32.1596 44.1529 30.9714 42.456C28.5441 38.9811 26.6924 32.6333 29.1821 28.3491C30.4156 26.2211 32.6275 24.8742 35.0237 24.8406C36.8498 24.807 38.5711 26.0587 39.6856 26.0587C40.8028 26.0587 42.8956 24.555 45.0932 24.7762C46.0148 24.8154 48.5982 25.143 50.257 27.5483C50.1266 27.6323 47.1718 29.3348 47.2087 32.8797C47.2455 37.1134 50.9546 38.5219 51 38.5415C50.9631 38.6395 50.4017 40.552 49.0405 42.5232Z" fill="white"/>
</svg>
