<svg width="64" height="64" viewBox="0 0 64 64" fill="none" xmlns="http://www.w3.org/2000/svg">
<circle cx="32" cy="32" r="26" fill="#7B4CDF"/>
<path d="M37.9249 28.9817C37.9524 29.0295 37.98 29.0654 38.0075 29.0893C38.0351 29.0893 38.0488 29.1132 38.0488 29.161C38.0488 29.3045 37.7045 29.5795 37.0157 29.9859C36.327 30.3685 35.4729 30.8109 34.4535 31.313C33.4342 31.7912 32.3597 32.2813 31.2302 32.7835C30.1006 33.2617 29.0951 33.6562 28.2135 33.967C28.2135 34.0149 28.1859 34.1703 28.1308 34.4333C28.0757 34.6963 28.0482 34.8637 28.0482 34.9354V35.6169C28.0482 36.1668 28.1446 36.7167 28.3374 37.2667C28.5303 37.7927 28.8196 38.2709 29.2053 38.7013C29.6185 39.1317 30.1144 39.4784 30.693 39.7414C31.2715 40.0044 31.9465 40.1359 32.7179 40.1359C33.0485 40.1359 33.448 40.0881 33.9163 39.9925C34.4122 39.8729 34.8806 39.7175 35.3214 39.5262C35.7897 39.311 36.203 39.06 36.5611 38.773C36.9193 38.4861 37.1397 38.1633 37.2223 37.8047C37.5529 37.8286 37.7458 37.9123 37.8009 38.0557C37.8835 38.1992 37.9249 38.2948 37.9249 38.3426C37.9249 38.9643 37.7458 39.5023 37.3876 39.9566C37.057 40.387 36.63 40.7457 36.1066 41.0326C35.6107 41.2956 35.0734 41.4988 34.4949 41.6423C33.9439 41.7618 33.448 41.8216 33.0072 41.8216C30.6379 41.8216 28.916 41.2478 27.8415 40.1001C26.7671 38.9524 26.2299 37.446 26.2299 35.581C26.2299 35.4853 26.2574 35.2702 26.3125 34.9354C26.3676 34.6007 26.3952 34.3735 26.3952 34.254C26.3952 34.23 26.3401 34.2061 26.2299 34.1822C26.1197 34.1344 25.9957 34.0866 25.8579 34.0388C25.7477 33.9909 25.6375 33.9192 25.5273 33.8236C25.4447 33.704 25.4034 33.5486 25.4034 33.3573C25.4034 33.166 25.486 33.0106 25.6513 32.8911C25.8166 32.7715 26.0095 32.6639 26.2299 32.5683L26.6431 32.3531C26.8911 31.4445 27.1803 30.5717 27.5109 29.7349C27.8691 28.8741 28.3099 28.0133 28.8333 27.1525C28.6129 27.1525 28.3788 27.1286 28.1308 27.0808C27.8829 27.033 27.7589 26.8656 27.7589 26.5787C27.7589 26.2439 27.9793 25.8733 28.4201 25.4669C28.8884 25.0604 29.4119 24.6778 29.9904 24.3192C30.5965 23.9605 31.1889 23.6616 31.7674 23.4225C32.346 23.1595 32.7592 23.028 33.0072 23.028C33.1174 23.028 33.1862 23.0519 33.2138 23.0997C33.2689 23.1236 33.3515 23.1356 33.4617 23.1356C33.6821 23.1356 33.9576 23.0997 34.2882 23.028C34.6464 22.9563 35.0183 22.8726 35.404 22.7769C35.7897 22.6813 36.1479 22.5976 36.4785 22.5259C36.8366 22.4541 37.1259 22.4183 37.3463 22.4183C37.5943 22.4183 37.7733 22.49 37.8835 22.6335C38.0213 22.7769 38.0902 22.9323 38.0902 23.0997C38.0902 23.291 37.9524 23.4345 37.6769 23.5301C37.4014 23.6018 37.1535 23.6616 36.9331 23.7094C36.1617 23.829 35.3489 24.0442 34.4949 24.355C33.6684 24.6419 32.897 24.9647 32.1807 25.3234C31.9052 25.5864 31.5746 25.969 31.1889 26.4711C30.8032 26.9493 30.4312 27.4992 30.0731 28.1209C29.7149 28.7426 29.3843 29.3882 29.0813 30.0577C28.8058 30.7272 28.6267 31.3608 28.5441 31.9586L29.2466 31.6716C31.3679 30.7869 33.0898 30.0935 34.4122 29.5914C35.7622 29.0893 36.8091 28.8382 37.5529 28.8382C37.6907 28.8382 37.8147 28.8861 37.9249 28.9817Z" fill="white"/>
</svg>
